<svg width="13" height="13" viewBox="0 0 13 13" fill="none" xmlns="http://www.w3.org/2000/svg">
<path d="M12.6093 10.8243L12.5794 10.6633C12.5076 10.2865 12.0669 9.81191 11.5995 9.60849L9.86994 8.85314C9.40082 8.64868 8.6613 8.61791 8.23126 8.79035L7.44682 9.10492C5.17066 8.11639 3.64473 6.38076 3.44986 4.55843L4.23434 4.24383C4.66439 4.07138 4.97815 3.61878 4.9369 3.24275L4.78381 1.85522C4.74239 1.47981 4.33542 0.99118 3.88055 0.769667L3.6856 0.674259C3.2298 0.452538 2.50535 0.412328 2.07533 0.584772L0.901745 1.05597C0.69229 1.13938 0.484919 1.46535 0.484573 1.46663C-0.141198 3.65212 0.518142 6.03931 2.31696 8.08528C4.11137 10.1262 6.88826 11.656 10.0184 12.3347C10.0347 12.3384 10.572 12.376 10.7814 12.2925L11.9548 11.822C12.3849 11.6495 12.6793 11.2007 12.6093 10.8243Z" fill="black"/>
</svg>
